<svg xmlns="http://www.w3.org/2000/svg" viewBox="0 0 512 512" style="enable-background:new 0 0 511.998 511.998" xml:space="preserve">
  <path style="fill:#db380e" d="M253 95c-23 17-50 35-64 67-25 54 51 113 54 116a4 4 0 0 0 6-5c0-1-27-54-26-92 0-13 19-28 38-44 18-15 39-31 50-50 27-43-2-85-3-85a4 4 0 0 0-7 3s5 28-10 56c-7 12-21 22-38 34z"/>
  <path style="fill:#db380e" d="M353 114a4 4 0 0 0-4-8c-4 2-98 38-98 82 0 31 13 47 22 58l8 12c3 10-4 28-7 33a4 4 0 0 0 6 6c2-1 40-28 33-61-2-12-9-21-14-29-8-12-14-21-5-38 11-19 59-55 59-55z"/>
  <path style="fill:#73a1fb" d="M107 298c-1 5 0 10 3 14 10 14 46 22 102 22h23c89-3 122-31 124-32a4 4 0 0 0-4-8 612 612 0 0 1-205 6c3-4 21-11 43-15a4 4 0 0 0-1-8c-13 0-78 1-85 21zm298-28c-19 0-36 9-37 9a4 4 0 0 0 2 8c1 0 39 1 43 23 3 19-37 50-52 60a4 4 0 0 0 3 8c4-1 90-20 81-71-5-31-25-37-40-37zm-60 94c1-2 0-4-1-4l-21-15-4-1s-22 6-53 10l-41 2c-31 0-52-4-55-7v-1l5-4a4 4 0 0 0-2-8c-21 5-31 12-31 21 2 16 38 24 69 26h14a596 596 0 0 0 120-19zm-156 33a4 4 0 0 0-3-7c-3 0-27 1-29 17 0 4 1 8 4 12 9 11 33 17 73 19a240 240 0 0 0 101-16 4 4 0 0 0 0-7l-26-16-3-1a673 673 0 0 1-60 8c-25 0-53-4-58-7l1-2z"/>
  <path style="fill:#73a1fb" d="M224 487c117 0 180-21 192-34 4-5 5-9 4-12 0-7-7-11-8-12s-4-1-5 1v5c1 1 1 3-1 5a674 674 0 0 1-302 7c3-3 21-9 41-13a4 4 0 0 0-1-8h-5c-33 2-71 7-73 24 0 5 1 9 5 14 9 10 34 23 153 23z"/>
  <path style="fill:#73a1fb" d="M439 457c-2-1-4-1-5 1 0 0-18 18-70 29-21 4-59 6-113 6-55 0-107-2-108-2-2 0-4 1-4 3 0 3 1 5 3 5a625 625 0 0 0 234 4c61-10 65-41 65-42 1-2 0-4-2-4z"/>
</svg>
