<svg xmlns="http://www.w3.org/2000/svg" version="1" viewBox="0 0 64 64"><rect width="48" height="48" x="-63" y="-56" rx="12" ry="15" style="opacity:.2" transform="matrix(0 -1 -1 0 0 0)"/><rect width="48" height="48" x="-50" y="-56" rx="5" ry="5" style="fill:#8e8e8e" transform="matrix(0 -1 -1 0 0 0)"/><rect width="48" height="48" x="-62" y="-56" rx="12" ry="15" style="fill:#8e8e8e" transform="matrix(0 -1 -1 0 0 0)"/><rect width="36" height="38" x="14" y="8" rx="1.5" ry="1.5" style="opacity:.6"/><circle cx="19" cy="52" r="3" style="opacity:.5"/><circle cx="44" cy="52" r="3" style="opacity:.5"/><path d="M42 2h4v4h-4z" style="opacity:.5"/><circle cx="32" cy="54" r="4" style="opacity:.5"/><path d="M13 2c-3 0-5 2-5 5v1c0-3 2-5 5-5h38c3 0 5 2 5 5V7c0-3-2-5-5-5H13z" style="fill:#fff;opacity:.2"/></svg>